<?xml version="1.0" encoding="utf-8"?>
<!-- Designed by Vexels.com - 2017 All Rights Reserved - https://vexels.com/terms-and-conditions/  -->

<svg version="1.1" id="Layer_1" xmlns="http://www.w3.org/2000/svg" xmlns:xlink="http://www.w3.org/1999/xlink" x="0px" y="0px"
	 width="1200px" height="1200px" viewBox="0 0 1200 1200" enable-background="new 0 0 1200 1200" xml:space="preserve">
<g>
	<path fill="#FFFFFF" d="M1139.369,610.621c0,297.908-241.471,539.379-539.379,539.379c-297.888,0-539.359-241.471-539.359-539.379
		c0-297.888,241.471-539.358,539.359-539.358C897.898,71.263,1139.369,312.733,1139.369,610.621z"/>
	<path fill="#EA5B0C" d="M1139.369,589.358c0,297.909-241.471,539.369-539.379,539.369c-297.888,0-539.359-241.46-539.359-539.369
		C60.631,291.46,302.102,50,599.99,50C897.898,50,1139.369,291.46,1139.369,589.358z"/>
	<g>
		<rect x="353.87" y="265.614" fill="#FFFFFF" width="60.977" height="68.204"/>
		<rect x="353.87" y="381.557" fill="#FFFFFF" width="60.977" height="374.492"/>
		<polygon fill="#FFFFFF" points="385.182,854.029 412.986,781.43 356.449,781.43 		"/>
		<path fill="#FFFFFF" d="M854.875,471.545L709.646,333.454H470.333v448.164l-32.01,75.1h416.696L854.875,471.545z M537.021,452.274
			h134.482v35.164H537.021V452.274z M784.347,757.267H537.021v-35.176h247.326V757.267z M784.347,689.085H537.021v-35.176h247.326
			V689.085z M784.347,623.803H537.021v-35.165h247.326V623.803z M784.347,555.62H537.021v-35.164h247.326V555.62z M701.51,480.122
			V348.33l136.275,131.793H701.51z"/>
	</g>
</g>
</svg>
